<?xml version="1.0" encoding="UTF-8"?>
<svg version="1.1" xmlns="http://www.w3.org/2000/svg" width="100" height="100">
<path d="M0 0 C0.83640015 0.00202423 1.67280029 0.00404846 2.5345459 0.00613403 C3.84908752 0.00350555 3.84908752 0.00350555 5.19018555 0.00082397 C8.10186717 -0.00359576 11.0134886 -0.00065613 13.9251709 0.00271606 C15.93916841 0.00204306 17.95316585 0.00107306 19.96716309 -0.00018311 C24.19405895 -0.00166024 28.42093373 0.00049499 32.64782715 0.00515747 C38.07897622 0.01085476 43.51007589 0.00757584 48.94122314 0.00158501 C53.10176977 -0.00202018 57.26230459 -0.00088222 61.42285156 0.0017128 C63.42602545 0.00238219 65.42920039 0.00155324 67.43237305 -0.00076675 C70.22687642 -0.00329258 73.02129861 0.00054632 75.8157959 0.00613403 C77.07039612 0.00309769 77.07039612 0.00309769 78.3503418 0 C84.06090848 0.02126614 84.06090848 0.02126614 85.1751709 1.13552856 C85.27447622 3.1244035 85.30316551 5.11683273 85.30456543 7.10818481 C85.30771759 8.38620972 85.31086975 9.66423462 85.31411743 10.98098755 C85.31232765 12.38666824 85.3102767 13.79234861 85.3079834 15.19802856 C85.30865648 16.6290997 85.30962654 18.06017072 85.31088257 19.49124146 C85.31235934 22.49410081 85.31020566 25.49693047 85.30554199 28.49978638 C85.2998447 32.35705428 85.30312382 36.2142526 85.30911446 40.07151794 C85.31272064 43.02766447 85.31158122 45.98379439 85.30898666 48.93994141 C85.30831755 50.36256926 85.30914527 51.78519859 85.31146622 53.20782471 C85.31399363 55.1928403 85.30946132 57.17786115 85.30456543 59.16287231 C85.30376984 60.29458862 85.30297424 61.42630493 85.30215454 62.59231567 C85.1751709 65.13552856 85.1751709 65.13552856 84.1751709 66.13552856 C81.72686663 66.2239665 79.30696491 66.25081608 76.85876465 66.23318481 C75.76218285 66.23106239 75.76218285 66.23106239 74.64344788 66.22889709 C72.29981458 66.22328265 69.95627551 66.21072778 67.6126709 66.19802856 C66.02738582 66.19301542 64.44209924 66.18845219 62.85681152 66.18435669 C58.9628948 66.17330853 55.06904884 66.15603428 51.1751709 66.13552856 C51.1751709 68.11552856 51.1751709 70.09552856 51.1751709 72.13552856 C51.87384277 72.11232544 52.57251465 72.08912231 53.2923584 72.06521606 C54.20243652 72.04716919 55.11251465 72.02912231 56.0501709 72.01052856 C56.95509277 71.98732544 57.86001465 71.96412231 58.7923584 71.94021606 C61.1751709 72.13552856 61.1751709 72.13552856 63.1751709 74.13552856 C63.1751709 77.43552856 63.1751709 80.73552856 63.1751709 84.13552856 C47.3351709 84.13552856 31.4951709 84.13552856 15.1751709 84.13552856 C15.1751709 74.13552856 15.1751709 74.13552856 17.1751709 72.13552856 C19.5579834 71.94021606 19.5579834 71.94021606 22.3001709 72.01052856 C23.21024902 72.02857544 24.12032715 72.04662231 25.0579834 72.06521606 C25.75665527 72.08841919 26.45532715 72.11162231 27.1751709 72.13552856 C27.1751709 70.15552856 27.1751709 68.17552856 27.1751709 66.13552856 C26.18073975 66.14076538 25.18630859 66.1460022 24.16174316 66.15139771 C20.48483169 66.16944898 16.80792415 66.18096102 13.13098145 66.19046021 C11.53722475 66.19550014 9.94347271 66.20233206 8.34973145 66.21096802 C6.06366837 66.22304855 3.77766623 66.22876012 1.49157715 66.23318481 C0.77490372 66.2383461 0.05823029 66.24350739 -0.68016052 66.24882507 C-2.39546583 66.24902119 -4.11064176 66.19744864 -5.8248291 66.13552856 C-7.62745432 64.33290334 -6.95251613 61.59175847 -6.95422363 59.16287231 C-6.95737579 57.88484741 -6.96052795 56.60682251 -6.96377563 55.29006958 C-6.96198585 53.88438889 -6.9599349 52.47870852 -6.9576416 51.07302856 C-6.95831468 49.64195743 -6.95928475 48.21088641 -6.96054077 46.77981567 C-6.96201754 43.77695632 -6.95986387 40.77412666 -6.9552002 37.77127075 C-6.94950291 33.91400285 -6.95278202 30.05680453 -6.95877266 26.19953918 C-6.96237884 23.24339266 -6.96123943 20.28726274 -6.95864487 17.33111572 C-6.95797576 15.90848787 -6.95880347 14.48585854 -6.96112442 13.06323242 C-6.96365184 11.07821683 -6.95911953 9.09319598 -6.95422363 7.10818481 C-6.95342804 5.97646851 -6.95263245 4.8447522 -6.95181274 3.67874146 C-6.71324141 -1.09933617 -4.17565091 0.01555012 0 0 Z M-2.8248291 4.13552856 C-2.8248291 19.31552856 -2.8248291 34.49552856 -2.8248291 50.13552856 C24.8951709 50.13552856 52.6151709 50.13552856 81.1751709 50.13552856 C81.1751709 34.95552856 81.1751709 19.77552856 81.1751709 4.13552856 C53.4551709 4.13552856 25.7351709 4.13552856 -2.8248291 4.13552856 Z M-2.8248291 54.13552856 C-2.8248291 56.77552856 -2.8248291 59.41552856 -2.8248291 62.13552856 C24.8951709 62.13552856 52.6151709 62.13552856 81.1751709 62.13552856 C81.1751709 59.49552856 81.1751709 56.85552856 81.1751709 54.13552856 C53.4551709 54.13552856 25.7351709 54.13552856 -2.8248291 54.13552856 Z M31.1751709 66.13552856 C31.1751709 68.11552856 31.1751709 70.09552856 31.1751709 72.13552856 C36.4551709 72.13552856 41.7351709 72.13552856 47.1751709 72.13552856 C47.1751709 70.15552856 47.1751709 68.17552856 47.1751709 66.13552856 C41.8951709 66.13552856 36.6151709 66.13552856 31.1751709 66.13552856 Z M21.1751709 76.13552856 C20.5151709 77.45552856 19.8551709 78.77552856 19.1751709 80.13552856 C32.3751709 80.13552856 45.5751709 80.13552856 59.1751709 80.13552856 C58.5151709 78.81552856 57.8551709 77.49552856 57.1751709 76.13552856 C45.2951709 76.13552856 33.4151709 76.13552856 21.1751709 76.13552856 Z " fill="#000000" transform="translate(10.8248291015625,7.864471435546875)"/>
<path d="M0 0 C1.32 0 2.64 0 4 0 C3.51405494 7.79455877 0.85432738 14.60710273 -1.875 21.875 C-2.54595703 23.72738281 -2.54595703 23.72738281 -3.23046875 25.6171875 C-3.66746094 26.7928125 -4.10445312 27.9684375 -4.5546875 29.1796875 C-4.95155762 30.24944824 -5.34842773 31.31920898 -5.75732422 32.42138672 C-7 35 -7 35 -10 37 C-10.66 36.67 -11.32 36.34 -12 36 C-11.53029342 28.16177152 -8.78113746 21.35139776 -6 14.0625 C-5.53051361 12.80691573 -5.06175757 11.55105811 -4.59375 10.29492188 C-1.15605828 1.15605828 -1.15605828 1.15605828 0 0 Z " fill="#000000" transform="translate(54,18)"/>
<path d="M0 0 C3.1295537 0.33028162 4.68837667 0.7185911 7.0546875 2.85546875 C11.88250571 9.04046333 11.88250571 9.04046333 12.375 13.0625 C10.37795653 17.32891106 7.66541598 21.00999193 4 24 C2.68 24 1.36 24 0 24 C0.45336079 19.12637153 1.7089159 16.60957611 5 13 C4.03265478 10.32119785 3.14649125 8.1859312 1.375 5.9375 C0 4 0 4 0 0 Z " fill="#000000" transform="translate(62,24)"/>
<path d="M0 0 C-0.45336079 4.87362847 -1.7089159 7.39042389 -5 11 C-4.03265478 13.67880215 -3.14649125 15.8140688 -1.375 18.0625 C0 20 0 20 0 24 C-3.1295537 23.66971838 -4.68837667 23.2814089 -7.0546875 21.14453125 C-11.88250571 14.95953667 -11.88250571 14.95953667 -12.375 10.9375 C-9.727388 5.28123799 -6.55684059 0 0 0 Z " fill="#000000" transform="translate(38,24)"/>
<path d="M0 0 C1.32 0 2.64 0 4 0 C4 1.32 4 2.64 4 4 C2.68 4 1.36 4 0 4 C0 2.68 0 1.36 0 0 Z " fill="#000000" transform="translate(82,64)"/>
</svg>
