<?xml version="1.0" encoding="UTF-8"?>
<svg version="1.1" xmlns="http://www.w3.org/2000/svg" width="80" height="80">
<path d="M0 0 C0.66178253 -0.00175232 1.32356506 -0.00350464 2.00540161 -0.00531006 C4.20284615 -0.00972764 6.40021083 -0.00679094 8.59765625 -0.00341797 C10.11840836 -0.00409104 11.63916037 -0.00506108 13.15991211 -0.00631714 C16.35108461 -0.00779398 19.54222917 -0.00563999 22.73339844 -0.00097656 C26.83280155 0.00472073 30.93213921 0.00144165 35.03153992 -0.00454903 C38.17297869 -0.008155 41.31440183 -0.00701589 44.45584106 -0.00442123 C45.96778369 -0.00375207 47.47972771 -0.00458003 48.9916687 -0.00690079 C51.10125512 -0.00942792 53.21073412 -0.00558591 55.3203125 0 C56.52308838 0.00079559 57.72586426 0.00159119 58.96508789 0.00241089 C61.66015625 0.12939453 61.66015625 0.12939453 62.66015625 1.12939453 C62.7479123 3.2749828 62.76710844 5.42343874 62.7578125 7.57080078 C62.75297852 9.52856445 62.75297852 9.52856445 62.74804688 11.52587891 C62.73969026 12.91455143 62.7312253 14.3032233 62.72265625 15.69189453 C62.71764291 17.08447109 62.71307972 18.47704935 62.70898438 19.86962891 C62.69715059 23.28959323 62.68066505 26.70947297 62.66015625 30.12939453 C62.00015625 29.79939453 61.34015625 29.46939453 60.66015625 29.12939453 C60.6351001 28.37730713 60.61004395 27.62521973 60.58422852 26.8503418 C60.46865111 23.46400257 60.3457528 20.0779684 60.22265625 16.69189453 C60.18333984 15.50789063 60.14402344 14.32388672 60.10351562 13.10400391 C60.06162109 11.97929687 60.01972656 10.85458984 59.9765625 9.69580078 C59.93990479 8.65367432 59.90324707 7.61154785 59.86547852 6.5378418 C59.92500284 4.17941193 59.92500284 4.17941193 58.66015625 3.12939453 C56.73253808 3.0301859 54.80126271 3.00140088 52.87109375 3 C51.63311035 2.99684784 50.39512695 2.99369568 49.11962891 2.990448 C47.75813766 2.99223778 46.39664674 2.99428873 45.03515625 2.99658203 C43.64892561 2.99590894 42.26269508 2.99493887 40.87646484 2.99368286 C37.96776203 2.99220613 35.05908988 2.99435963 32.15039062 2.99902344 C28.41419027 3.00472073 24.67806173 3.00144159 20.94186401 2.99545097 C18.07836359 2.99184468 15.21488032 2.99298426 12.35137939 2.99557877 C10.97340893 2.99624785 9.59543693 2.99542027 8.21746826 2.99309921 C6.29471871 2.99057161 4.37196373 2.9951043 2.44921875 3 C1.35303223 3.00079559 0.2568457 3.00159119 -0.87255859 3.00241089 C-3.28407726 2.85035218 -3.28407726 2.85035218 -4.33984375 4.12939453 C-4.4408763 6.92933051 -4.47954463 9.70408097 -4.47265625 12.50439453 C-4.47409134 13.76388916 -4.47409134 13.76388916 -4.47555542 15.04882812 C-4.47623723 16.82763748 -4.47438292 18.6064493 -4.47021484 20.38525391 C-4.46486658 23.11773229 -4.4701598 25.85004629 -4.4765625 28.58251953 C-4.47590172 30.30647823 -4.47462056 32.03043683 -4.47265625 33.75439453 C-4.47468048 34.5772998 -4.47670471 35.40020508 -4.47879028 36.24804688 C-4.82559835 39.99319319 -4.82559835 39.99319319 -3.33984375 43.12939453 C-1.58425717 43.27495871 0.17671733 43.35663015 1.9375 43.41064453 C3.00806641 43.44802734 4.07863281 43.48541016 5.18164062 43.52392578 C6.30892578 43.55873047 7.43621094 43.59353516 8.59765625 43.62939453 C10.81523872 43.6980976 13.03270168 43.77081242 15.25 43.84814453 C16.23863037 43.8784375 17.22726074 43.90873047 18.24584961 43.93994141 C20.66015625 44.12939453 20.66015625 44.12939453 22.66015625 45.12939453 C24.32460086 45.22498763 25.99297588 45.25924099 27.66015625 45.25439453 C28.99046875 45.25826172 28.99046875 45.25826172 30.34765625 45.26220703 C32.68692591 45.28067355 32.68692591 45.28067355 34.66015625 44.12939453 C37.33251835 43.99523981 39.98266113 44.08620913 42.66015625 44.12939453 C41.66015625 46.12939453 41.66015625 46.12939453 38.97265625 47.25439453 C33.07344867 48.82504309 26.70710126 48.47794498 20.66015625 48.12939453 C20.16515625 47.63439453 20.16515625 47.63439453 19.66015625 47.12939453 C17.58753549 47.04172341 15.51195331 47.0224358 13.4375 47.03173828 C12.17744141 47.03496094 10.91738281 47.03818359 9.61914062 47.04150391 C8.27864516 47.0498605 6.93815037 47.05832546 5.59765625 47.06689453 C4.25325683 47.07190793 2.90885565 47.07647111 1.56445312 47.08056641 C-1.73702316 47.09239965 -5.03841178 47.10888482 -8.33984375 47.12939453 C-8.33984375 47.78939453 -8.33984375 48.44939453 -8.33984375 49.12939453 C6.51015625 49.45939453 21.36015625 49.78939453 36.66015625 50.12939453 C36.16515625 51.11939453 36.16515625 51.11939453 35.66015625 52.12939453 C29.28812032 52.17999083 22.91613595 52.2150841 16.54394531 52.23925781 C14.37498031 52.24933242 12.20602894 52.26299251 10.03710938 52.28027344 C6.92444499 52.30445776 3.81195974 52.31586285 0.69921875 52.32470703 C-0.27477875 52.3350296 -1.24877625 52.34535217 -2.25228882 52.35598755 C-3.15307159 52.35613861 -4.05385437 52.35628967 -4.98193359 52.35644531 C-6.17440201 52.36310715 -6.17440201 52.36310715 -7.39096069 52.36990356 C-9.33984375 52.12939453 -9.33984375 52.12939453 -11.33984375 50.12939453 C-11.46484375 47.00439453 -11.46484375 47.00439453 -11.33984375 44.12939453 C-10.01984375 44.12939453 -8.69984375 44.12939453 -7.33984375 44.12939453 C-7.34508057 42.83203369 -7.35031738 41.53467285 -7.35571289 40.19799805 C-7.37375844 35.40292038 -7.38527412 30.60784573 -7.39477539 25.81274414 C-7.39981663 23.73396297 -7.40664949 21.65518537 -7.4152832 19.57641602 C-7.42735797 16.59536867 -7.43307399 13.61436804 -7.4375 10.63330078 C-7.44524193 9.23018394 -7.44524193 9.23018394 -7.45314026 7.79872131 C-7.45321579 6.93790451 -7.45329132 6.07708771 -7.45336914 5.19018555 C-7.45558975 4.42851578 -7.45781036 3.66684601 -7.46009827 2.88209534 C-7.17587572 -1.26042758 -3.31774121 0.00219457 0 0 Z " fill="#000000" transform="translate(12.33984375,13.87060546875)"/>
<path d="M0 0 C0 0.99 0 1.98 0 3 C-1.66666667 4.66666667 -3.33333333 6.33333333 -5 8 C-5.86119134 10.17346568 -5.86119134 10.17346568 -6 12 C-1.40693504 10.5140084 1.43569245 8.14985318 5 5 C6.71689489 6.71689489 6.25303054 8.90878137 6.3125 11.25 C6.25295029 14.781756 6.0860224 16.80840465 4.625 20.0625 C1.80957245 22.14055367 0.73468911 22.27546266 -2.625 22.6875 C-8.85907796 23.59393863 -11.86875408 27.26348353 -15.96875 31.78515625 C-18.69688188 34.75986928 -19.40465462 34.9681065 -23.5 35.1875 C-27 35 -27 35 -29 33 C-29.654023 29.36653891 -29.68999271 27.01513996 -27.57421875 23.90234375 C-25.10279152 21.07105132 -22.60845986 18.49334583 -19.6875 16.125 C-17.70857866 13.63302497 -17.56132372 12.11084608 -17.0625 9 C-16.47071138 5.6563943 -16.11802448 4.15990414 -14.0625 1.375 C-9.43937327 -0.70068955 -4.98896537 -0.31454072 0 0 Z M-11.6875 4.625 C-14.22471988 6.81146093 -14.22471988 6.81146093 -14.625 9.875 C-13.76442742 14.17786288 -12.05588631 15.8713545 -9 19 C-6.12529507 20.43735246 -4.18105412 20.38172649 -1 20 C1.53191499 17.81501244 1.53191499 17.81501244 3 15 C2.67 14.01 2.34 13.02 2 12 C1.46375 12.53625 0.9275 13.0725 0.375 13.625 C-2 15 -2 15 -5.25 14.1875 C-6.1575 13.795625 -7.065 13.40375 -8 13 C-8.6875 10.25 -8.6875 10.25 -9 7 C-7.5625 4.625 -7.5625 4.625 -6 3 C-9.09556503 2.74129033 -9.09556503 2.74129033 -11.6875 4.625 Z M-21.1875 21.6875 C-22.57001953 22.99267578 -22.57001953 22.99267578 -23.98046875 24.32421875 C-26.3242551 26.8203262 -26.3242551 26.8203262 -25.80078125 29.83203125 C-25.53652344 30.54746094 -25.27226563 31.26289062 -25 32 C-20.37433645 31.53168238 -18.37473941 29.86602343 -15.1875 26.5625 C-14.39730469 25.75941406 -13.60710938 24.95632812 -12.79296875 24.12890625 C-10.78527368 22.20893165 -10.78527368 22.20893165 -11 20 C-12.33333333 18.33333333 -12.33333333 18.33333333 -14 17 C-17.33368031 17 -18.86715833 19.44570304 -21.1875 21.6875 Z " fill="#000000" transform="translate(74,45)"/>
<path d="M0 0 C0.66 0 1.32 0 2 0 C2 0.66 2 1.32 2 2 C1.34 2 0.68 2 0 2 C0 1.34 0 0.68 0 0 Z " fill="#000000" transform="translate(11,52)"/>
<path d="M0 0 C0.66 0 1.32 0 2 0 C2 0.66 2 1.32 2 2 C1.34 2 0.68 2 0 2 C0 1.34 0 0.68 0 0 Z " fill="#000000" transform="translate(11,48)"/>
<path d="M0 0 C0.66 0 1.32 0 2 0 C2 0.66 2 1.32 2 2 C1.34 2 0.68 2 0 2 C0 1.34 0 0.68 0 0 Z " fill="#000000" transform="translate(11,44)"/>
<path d="M0 0 C0.66 0 1.32 0 2 0 C2 0.66 2 1.32 2 2 C1.34 2 0.68 2 0 2 C0 1.34 0 0.68 0 0 Z " fill="#000000" transform="translate(67,40)"/>
<path d="M0 0 C0.66 0 1.32 0 2 0 C2 0.66 2 1.32 2 2 C1.34 2 0.68 2 0 2 C0 1.34 0 0.68 0 0 Z " fill="#000000" transform="translate(11,40)"/>
<path d="M0 0 C0.66 0 1.32 0 2 0 C2 0.66 2 1.32 2 2 C1.34 2 0.68 2 0 2 C0 1.34 0 0.68 0 0 Z " fill="#000000" transform="translate(67,36)"/>
<path d="M0 0 C0.66 0 1.32 0 2 0 C2 0.66 2 1.32 2 2 C1.34 2 0.68 2 0 2 C0 1.34 0 0.68 0 0 Z " fill="#000000" transform="translate(11,36)"/>
<path d="M0 0 C0.66 0 1.32 0 2 0 C2 0.66 2 1.32 2 2 C1.34 2 0.68 2 0 2 C0 1.34 0 0.68 0 0 Z " fill="#000000" transform="translate(67,32)"/>
<path d="M0 0 C0.66 0 1.32 0 2 0 C2 0.66 2 1.32 2 2 C1.34 2 0.68 2 0 2 C0 1.34 0 0.68 0 0 Z " fill="#000000" transform="translate(11,32)"/>
<path d="M0 0 C0.66 0 1.32 0 2 0 C2 0.66 2 1.32 2 2 C1.34 2 0.68 2 0 2 C0 1.34 0 0.68 0 0 Z " fill="#000000" transform="translate(67,28)"/>
<path d="M0 0 C0.66 0 1.32 0 2 0 C2 0.66 2 1.32 2 2 C1.34 2 0.68 2 0 2 C0 1.34 0 0.68 0 0 Z " fill="#000000" transform="translate(11,28)"/>
<path d="M0 0 C0.66 0 1.32 0 2 0 C2 0.66 2 1.32 2 2 C1.34 2 0.68 2 0 2 C0 1.34 0 0.68 0 0 Z " fill="#000000" transform="translate(67,24)"/>
<path d="M0 0 C0.66 0 1.32 0 2 0 C2 0.66 2 1.32 2 2 C1.34 2 0.68 2 0 2 C0 1.34 0 0.68 0 0 Z " fill="#000000" transform="translate(11,24)"/>
<path d="M0 0 C0.66 0 1.32 0 2 0 C2 0.66 2 1.32 2 2 C1.34 2 0.68 2 0 2 C0 1.34 0 0.68 0 0 Z " fill="#000000" transform="translate(67,20)"/>
<path d="M0 0 C0.66 0 1.32 0 2 0 C2 0.66 2 1.32 2 2 C1.34 2 0.68 2 0 2 C0 1.34 0 0.68 0 0 Z " fill="#000000" transform="translate(63,20)"/>
<path d="M0 0 C0.66 0 1.32 0 2 0 C2 0.66 2 1.32 2 2 C1.34 2 0.68 2 0 2 C0 1.34 0 0.68 0 0 Z " fill="#000000" transform="translate(59,20)"/>
<path d="M0 0 C0.66 0 1.32 0 2 0 C2 0.66 2 1.32 2 2 C1.34 2 0.68 2 0 2 C0 1.34 0 0.68 0 0 Z " fill="#000000" transform="translate(55,20)"/>
<path d="M0 0 C0.66 0 1.32 0 2 0 C2 0.66 2 1.32 2 2 C1.34 2 0.68 2 0 2 C0 1.34 0 0.68 0 0 Z " fill="#000000" transform="translate(51,20)"/>
<path d="M0 0 C0.66 0 1.32 0 2 0 C2 0.66 2 1.32 2 2 C1.34 2 0.68 2 0 2 C0 1.34 0 0.68 0 0 Z " fill="#000000" transform="translate(47,20)"/>
<path d="M0 0 C0.66 0 1.32 0 2 0 C2 0.66 2 1.32 2 2 C1.34 2 0.68 2 0 2 C0 1.34 0 0.68 0 0 Z " fill="#000000" transform="translate(43,20)"/>
<path d="M0 0 C0.66 0 1.32 0 2 0 C2 0.66 2 1.32 2 2 C1.34 2 0.68 2 0 2 C0 1.34 0 0.68 0 0 Z " fill="#000000" transform="translate(39,20)"/>
<path d="M0 0 C0.66 0 1.32 0 2 0 C2 0.66 2 1.32 2 2 C1.34 2 0.68 2 0 2 C0 1.34 0 0.68 0 0 Z " fill="#000000" transform="translate(35,20)"/>
<path d="M0 0 C0.66 0 1.32 0 2 0 C2 0.66 2 1.32 2 2 C1.34 2 0.68 2 0 2 C0 1.34 0 0.68 0 0 Z " fill="#000000" transform="translate(31,20)"/>
<path d="M0 0 C0.66 0 1.32 0 2 0 C2 0.66 2 1.32 2 2 C1.34 2 0.68 2 0 2 C0 1.34 0 0.68 0 0 Z " fill="#000000" transform="translate(27,20)"/>
<path d="M0 0 C0.66 0 1.32 0 2 0 C2 0.66 2 1.32 2 2 C1.34 2 0.68 2 0 2 C0 1.34 0 0.68 0 0 Z " fill="#000000" transform="translate(23,20)"/>
<path d="M0 0 C0.66 0 1.32 0 2 0 C2 0.66 2 1.32 2 2 C1.34 2 0.68 2 0 2 C0 1.34 0 0.68 0 0 Z " fill="#000000" transform="translate(19,20)"/>
<path d="M0 0 C0.66 0 1.32 0 2 0 C2 0.66 2 1.32 2 2 C1.34 2 0.68 2 0 2 C0 1.34 0 0.68 0 0 Z " fill="#000000" transform="translate(15,20)"/>
<path d="M0 0 C0.66 0 1.32 0 2 0 C2 0.66 2 1.32 2 2 C1.34 2 0.68 2 0 2 C0 1.34 0 0.68 0 0 Z " fill="#000000" transform="translate(11,20)"/>
</svg>
