<?xml version="1.0" encoding="UTF-8"?>
<svg version="1.1" xmlns="http://www.w3.org/2000/svg" width="80" height="80">
<path d="M0 0 C2.85566912 1.71585269 5.19790398 3.71005464 7.375 6.25 C7.045 7.24 6.715 8.23 6.375 9.25 C3.60658582 7.95078808 1.31387007 6.45415255 -1.125 4.625 C-6.39691223 1.3202192 -11.58858339 1.25882527 -17.625 2.25 C-23.07030996 4.20564674 -26.97464702 7.84298733 -29.7734375 12.87890625 C-31.73925002 18.35252183 -31.73925002 24.14747817 -29.7734375 29.62109375 C-26.97464702 34.65701267 -23.07030996 38.29435326 -17.625 40.25 C-11.80217706 41.20610282 -6.43051763 41.16388882 -1.1875 38.25 C3.53405818 34.73834111 6.86906871 30.47944929 7.79296875 24.58203125 C7.92606805 22.84169518 8.01204688 21.09677172 8.0390625 19.3515625 C8.14992187 18.65804688 8.26078125 17.96453125 8.375 17.25 C9.365 16.59 10.355 15.93 11.375 15.25 C11.92853075 28.8832574 11.92853075 28.8832574 8.375 35.25 C10.23431592 37.38153118 10.23431592 37.38153118 12.75073242 38.15722656 C17.26113331 40.03540633 20.26971217 43.59137514 23.6875 47 C24.42806641 47.70382813 25.16863281 48.40765625 25.93164062 49.1328125 C31.23616069 54.39333194 31.23616069 54.39333194 31.92578125 58.6484375 C31.375 61.25 31.375 61.25 30.25 63.125 C27.26988062 64.91307163 25.84587516 64.83902096 22.375 64.25 C19.12604791 61.84405692 16.40939592 58.98301133 13.625 56.0625 C12.85800781 55.29357422 12.09101562 54.52464844 11.30078125 53.73242188 C7.69420319 50.04027474 5.07459185 47.19706484 3.375 42.25 C0.42344717 42.05179718 0.42344717 42.05179718 -1.88671875 43.2265625 C-8.25906159 45.608237 -16.88339377 45.50044826 -23.125 42.6875 C-28.68840585 39.32080376 -32.65849183 34.43556206 -34.625 28.25 C-35.43094257 20.4061171 -35.72171889 12.65815533 -30.625 6.25 C-22.71355415 -2.11138589 -10.81987411 -5.17560833 0 0 Z M5.375 37.25 C5.375 38.24 5.375 39.23 5.375 40.25 C6.365 40.58 7.355 40.91 8.375 41.25 C7.715 39.93 7.055 38.61 6.375 37.25 C6.045 37.25 5.715 37.25 5.375 37.25 Z M10.375 43.25 C9.97881548 47.07425211 9.97881548 47.07425211 11.66015625 48.98925781 C12.24667969 49.55483398 12.83320312 50.12041016 13.4375 50.703125 C14.06914063 51.321875 14.70078125 51.940625 15.3515625 52.578125 C16.01929688 53.21234375 16.68703125 53.8465625 17.375 54.5 C18.04273438 55.1496875 18.71046875 55.799375 19.3984375 56.46875 C21.04868018 58.07184289 22.70751791 59.66487834 24.375 61.25 C25.695 60.59 27.015 59.93 28.375 59.25 C28.375 58.59 28.375 57.93 28.375 57.25 C27.055 57.25 25.735 57.25 24.375 57.25 C22.9822711 55.63263741 21.65562485 53.9574998 20.375 52.25 C18.72497172 50.89613064 17.0575613 49.56321858 15.375 48.25 C13.68971312 46.60216394 12.01802953 44.93997323 10.375 43.25 Z " fill="#000000" transform="translate(41.625,8.75)"/>
<path d="M0 0 C3.60208439 1.2006948 3.9232341 2.42492231 5.6015625 5.66137695 C8.5236477 11.50500629 8.5236477 11.50500629 13.74609375 15.08203125 C16.24443366 15.29111218 18.51499212 15.31062598 21 15 C21 15.66 21 16.32 21 17 C16.52806973 17.59714202 12.44198637 17.8979045 8 17 C5.65009216 14.54229823 4.4378308 12.27937515 3.05078125 9.1875 C2.70402344 8.465625 2.35726562 7.74375 2 7 C1.34 7 0.68 7 0 7 C-0.84791185 8.62787257 -1.65316438 10.27805996 -2.4375 11.9375 C-4.02734375 14.734375 -4.02734375 14.734375 -6 17 C-8.88115754 17.70209485 -11.40527675 17.68827536 -14.36328125 17.6640625 C-17.66451397 18.084664 -18.58839711 19.03958774 -20.6875 21.5625 C-21.49018091 22.68625327 -22.27332358 23.82566638 -23 25 C-25.88413035 23.72409871 -26.87955612 23.18993073 -28.625 20.4375 C-32.19597745 16.77254946 -36.0637028 17.10362456 -41 17 C-41 16.34 -41 15.68 -41 15 C-38.89695523 14.8919977 -36.79233091 14.81441013 -34.6875 14.75 C-32.92986328 14.68039063 -32.92986328 14.68039063 -31.13671875 14.609375 C-28 15 -28 15 -26.08203125 17.015625 C-25.72496094 17.67046875 -25.36789063 18.3253125 -25 19 C-21.72226496 18.24849977 -21.72226496 18.24849977 -20 15 C-17.71484375 14.98046875 -17.71484375 14.98046875 -14.9375 15.1875 C-11.85406984 15.04105741 -9.83014872 14.83770081 -7.60449219 12.59179688 C-4.63169425 8.65278508 -2.28155227 4.36593337 0 0 Z " fill="#000000" transform="translate(52,14)"/>
<path d="M0 0 C0.99 0 1.98 0 3 0 C3 0.99 3 1.98 3 3 C2.01 3 1.02 3 0 3 C0 2.01 0 1.02 0 0 Z " fill="#000000" transform="translate(33,46)"/>
<path d="M0 0 C0.99 0 1.98 0 3 0 C3 0.99 3 1.98 3 3 C2.01 3 1.02 3 0 3 C0 2.01 0 1.02 0 0 Z " fill="#000000" transform="translate(24,46)"/>
<path d="M0 0 C0.99 0 1.98 0 3 0 C3 0.99 3 1.98 3 3 C2.01 3 1.02 3 0 3 C0 2.01 0 1.02 0 0 Z " fill="#000000" transform="translate(46,33)"/>
<path d="M0 0 C0.99 0 1.98 0 3 0 C3 0.99 3 1.98 3 3 C2.01 3 1.02 3 0 3 C0 2.01 0 1.02 0 0 Z " fill="#000000" transform="translate(11,33)"/>
<path d="M0 0 C0.99 0 1.98 0 3 0 C3 0.99 3 1.98 3 3 C2.01 3 1.02 3 0 3 C0 2.01 0 1.02 0 0 Z " fill="#000000" transform="translate(11,24)"/>
<path d="M0 0 C0.99 0 1.98 0 3 0 C3 0.99 3 1.98 3 3 C2.01 3 1.02 3 0 3 C0 2.01 0 1.02 0 0 Z " fill="#000000" transform="translate(33,11)"/>
<path d="M0 0 C0.99 0 1.98 0 3 0 C3 0.99 3 1.98 3 3 C2.01 3 1.02 3 0 3 C0 2.01 0 1.02 0 0 Z " fill="#000000" transform="translate(24,11)"/>
<path d="M0 0 C0.66 0 1.32 0 2 0 C2 0.99 2 1.98 2 3 C1.01 3 0.02 3 -1 3 C-0.67 2.01 -0.34 1.02 0 0 Z " fill="#000000" transform="translate(42,41)"/>
<path d="M0 0 C0.99 0.33 1.98 0.66 3 1 C3 1.66 3 2.32 3 3 C2.01 3 1.02 3 0 3 C0 2.01 0 1.02 0 0 Z " fill="#000000" transform="translate(16,41)"/>
<path d="M0 0 C0.99 0 1.98 0 3 0 C3 0.99 3 1.98 3 3 C2.01 2.67 1.02 2.34 0 2 C0 1.34 0 0.68 0 0 Z " fill="#000000" transform="translate(41,16)"/>
<path d="M0 0 C0.99 0 1.98 0 3 0 C2.67 0.99 2.34 1.98 2 3 C1.34 3 0.68 3 0 3 C0 2.01 0 1.02 0 0 Z " fill="#000000" transform="translate(16,16)"/>
<path d="M0 0 C0.66 0 1.32 0 2 0 C2 0.99 2 1.98 2 3 C1.34 3 0.68 3 0 3 C0 2.01 0 1.02 0 0 Z " fill="#000000" transform="translate(38,44)"/>
<path d="M0 0 C0.66 0 1.32 0 2 0 C2 0.99 2 1.98 2 3 C1.34 3 0.68 3 0 3 C0 2.01 0 1.02 0 0 Z " fill="#000000" transform="translate(20,44)"/>
<path d="M0 0 C0.99 0 1.98 0 3 0 C3 0.66 3 1.32 3 2 C2.01 2 1.02 2 0 2 C0 1.34 0 0.68 0 0 Z " fill="#000000" transform="translate(44,38)"/>
<path d="M0 0 C0.99 0 1.98 0 3 0 C3 0.66 3 1.32 3 2 C2.01 2 1.02 2 0 2 C0 1.34 0 0.68 0 0 Z " fill="#000000" transform="translate(13,38)"/>
<path d="M0 0 C0.99 0 1.98 0 3 0 C3 0.66 3 1.32 3 2 C2.01 2 1.02 2 0 2 C0 1.34 0 0.68 0 0 Z " fill="#000000" transform="translate(13,20)"/>
<path d="M0 0 C0.66 0 1.32 0 2 0 C2 0.99 2 1.98 2 3 C1.34 3 0.68 3 0 3 C0 2.01 0 1.02 0 0 Z " fill="#000000" transform="translate(38,13)"/>
<path d="M0 0 C0.66 0 1.32 0 2 0 C2 0.99 2 1.98 2 3 C1.34 3 0.68 3 0 3 C0 2.01 0 1.02 0 0 Z " fill="#000000" transform="translate(20,13)"/>
<path d="M0 0 C0.66 0 1.32 0 2 0 C2 0.66 2 1.32 2 2 C1.34 2 0.68 2 0 2 C0 1.34 0 0.68 0 0 Z " fill="#000000" transform="translate(29,47)"/>
<path d="M0 0 C0.66 0 1.32 0 2 0 C2 0.66 2 1.32 2 2 C1.34 2 0.68 2 0 2 C0 1.34 0 0.68 0 0 Z " fill="#000000" transform="translate(29,11)"/>
</svg>
