<?xml version="1.0" encoding="UTF-8"?>
<svg version="1.1" xmlns="http://www.w3.org/2000/svg" width="50" height="50">
<path d="M0 0 C1.2219104 0.00607269 1.2219104 0.00607269 2.46850586 0.01226807 C3.30438232 0.01035461 4.14025879 0.00844116 5.00146484 0.00646973 C6.77010397 0.00510771 8.53875309 0.0088053 10.30737305 0.01715088 C13.02016579 0.02785031 15.7322963 0.01725631 18.44506836 0.00445557 C20.16121566 0.00577716 21.87736255 0.00833955 23.59350586 0.01226807 C24.40811279 0.0082196 25.22271973 0.00417114 26.06201172 0 C31.80108658 0.04797379 31.80108658 0.04797379 34.03100586 2.27789307 C34.23090813 5.12329449 34.31077562 7.8692709 34.29663086 10.71539307 C34.29950104 11.96920776 34.29950104 11.96920776 34.3024292 13.24835205 C34.30379121 15.01699118 34.30009362 16.78564029 34.29174805 18.55426025 C34.28104861 21.267053 34.29164262 23.9791835 34.30444336 26.69195557 C34.30312177 28.40810287 34.30055938 30.12424975 34.29663086 31.84039307 C34.30067932 32.655 34.30472778 33.46960693 34.30889893 34.30889893 C34.26092514 40.04797379 34.26092514 40.04797379 32.03100586 42.27789307 C29.18560444 42.47779534 26.43962802 42.55766282 23.59350586 42.54351807 C22.75762939 42.54543152 21.92175293 42.54734497 21.06054688 42.54931641 C19.29190775 42.55067842 17.52325863 42.54698083 15.75463867 42.53863525 C13.04184592 42.52793582 10.32971542 42.53852983 7.61694336 42.55133057 C5.90079606 42.55000897 4.18464917 42.54744659 2.46850586 42.54351807 C1.65389893 42.54756653 0.83929199 42.55161499 0 42.55578613 C-5.73907486 42.50781235 -5.73907486 42.50781235 -7.96899414 40.27789307 C-8.16889641 37.43249164 -8.2487639 34.68651523 -8.23461914 31.84039307 C-8.23653259 31.0045166 -8.23844604 30.16864014 -8.24041748 29.30743408 C-8.2417795 27.53879496 -8.2380819 25.77014584 -8.22973633 24.00152588 C-8.21903689 21.28873313 -8.2296309 18.57660263 -8.24243164 15.86383057 C-8.24111005 14.14768327 -8.23854766 12.43153638 -8.23461914 10.71539307 C-8.2386676 9.90078613 -8.24271606 9.0861792 -8.24688721 8.24688721 C-8.18797962 1.19980856 -7.04707865 0.05890759 0 0 Z M0.03100586 9.27789307 C0.03100586 10.26789307 0.03100586 11.25789307 0.03100586 12.27789307 C1.35100586 12.27789307 2.67100586 12.27789307 4.03100586 12.27789307 C4.03100586 11.28789307 4.03100586 10.29789307 4.03100586 9.27789307 C2.71100586 9.27789307 1.39100586 9.27789307 0.03100586 9.27789307 Z M-0.96899414 16.27789307 C-0.96899414 22.54789307 -0.96899414 28.81789307 -0.96899414 35.27789307 C1.01100586 35.27789307 2.99100586 35.27789307 5.03100586 35.27789307 C5.03100586 29.00789307 5.03100586 22.73789307 5.03100586 16.27789307 C3.05100586 16.27789307 1.07100586 16.27789307 -0.96899414 16.27789307 Z M8.03100586 16.27789307 C8.03100586 22.54789307 8.03100586 28.81789307 8.03100586 35.27789307 C10.01100586 35.27789307 11.99100586 35.27789307 14.03100586 35.27789307 C14.36100586 30.98789307 14.69100586 26.69789307 15.03100586 22.27789307 C16.02100586 21.94789307 17.01100586 21.61789307 18.03100586 21.27789307 C18.69100586 21.60789307 19.35100586 21.93789307 20.03100586 22.27789307 C20.44506836 25.21929932 20.44506836 25.21929932 20.65600586 28.84039307 C20.73077148 30.03793213 20.80553711 31.23547119 20.88256836 32.46929932 C20.93155273 33.39613525 20.98053711 34.32297119 21.03100586 35.27789307 C23.01100586 35.27789307 24.99100586 35.27789307 27.03100586 35.27789307 C27.32462593 27.08469207 27.32462593 27.08469207 25.03100586 19.27789307 C23.08133307 16.88224379 23.08133307 16.88224379 19.46850586 17.09039307 C16.20136891 16.88501501 16.20136891 16.88501501 15.03100586 18.27789307 C14.70100586 17.61789307 14.37100586 16.95789307 14.03100586 16.27789307 C12.05100586 16.27789307 10.07100586 16.27789307 8.03100586 16.27789307 Z " fill="#000000" transform="translate(11.968994140625,3.72210693359375)"/>
</svg>
