<?xml version="1.0" encoding="UTF-8"?>
<svg version="1.1" xmlns="http://www.w3.org/2000/svg" width="100" height="100">
<path d="M0 0 C1.13566406 -0.01675781 2.27132812 -0.03351563 3.44140625 -0.05078125 C6.4375 0.3125 6.4375 0.3125 8.10644531 1.42041016 C10.09238264 4.24341351 9.77525052 6.53087715 9.73046875 9.94921875 C9.7159668 11.89731445 9.7159668 11.89731445 9.70117188 13.88476562 C9.67610585 15.25651639 9.65071101 16.62826118 9.625 18 C9.6099502 19.38344924 9.5962623 20.76691401 9.58398438 22.15039062 C9.54857223 25.53815207 9.49918054 28.92513139 9.4375 32.3125 C6.7975 32.3125 4.1575 32.3125 1.4375 32.3125 C1.4375 29.0125 1.4375 25.7125 1.4375 22.3125 C-0.728125 22.374375 -0.728125 22.374375 -2.9375 22.4375 C-5.3984375 22.5078125 -5.3984375 22.5078125 -7.5625 22.3125 C-8.2225 21.6525 -8.8825 20.9925 -9.5625 20.3125 C-12.60432893 20.06244614 -12.60432893 20.06244614 -15.5625 20.3125 C-16.90654775 21.43086224 -16.90654775 21.43086224 -16.6875 24.3125 C-16.90654775 27.19413776 -16.90654775 27.19413776 -15.5625 28.3125 C-12.60432893 28.56255386 -12.60432893 28.56255386 -9.5625 28.3125 C-8.9025 27.6525 -8.2425 26.9925 -7.5625 26.3125 C-5.9125 26.3125 -4.2625 26.3125 -2.5625 26.3125 C-2.5625 29.6125 -2.5625 32.9125 -2.5625 36.3125 C1.3975 36.3125 5.3575 36.3125 9.4375 36.3125 C9.4375 41.5925 9.4375 46.8725 9.4375 52.3125 C4.1575 52.3125 -1.1225 52.3125 -6.5625 52.3125 C-6.52125 54.41625 -6.48 56.52 -6.4375 58.6875 C-6.3671875 62.2734375 -6.3671875 62.2734375 -6.5625 65.3125 C-7.5525 66.3025 -7.5525 66.3025 -8.5625 67.3125 C-8.81255386 70.35432893 -8.81255386 70.35432893 -8.5625 73.3125 C-7.44413776 74.65654775 -7.44413776 74.65654775 -4.5625 74.4375 C-1.68086224 74.65654775 -1.68086224 74.65654775 -0.5625 73.3125 C-0.31244614 70.35432893 -0.31244614 70.35432893 -0.5625 67.3125 C-1.2225 66.6525 -1.8825 65.9925 -2.5625 65.3125 C-2.83490673 62.29423347 -2.64925125 59.34879378 -2.5625 56.3125 C1.3975 56.3125 5.3575 56.3125 9.4375 56.3125 C9.51177649 60.79651485 9.56616111 65.28020174 9.60229492 69.76464844 C9.61736151 71.2894515 9.63781876 72.81421136 9.66381836 74.33886719 C9.70029706 76.53331166 9.71724714 78.72718216 9.73046875 80.921875 C9.7461792 82.24155273 9.76188965 83.56123047 9.77807617 84.92089844 C9.42231178 88.46375074 8.96584074 89.86210059 6.4375 92.3125 C2.42326671 93.31433103 -1.83689426 93.24777831 -5.515625 91.25390625 C-7.66233101 89.4979841 -9.31680096 87.80389807 -10.5625 85.3125 C-12.31751036 84.59034871 -12.31751036 84.59034871 -14.375 84 C-18.42015498 82.52112614 -20.47318478 81.24041262 -22.5625 77.3125 C-22.75913679 75.63016306 -22.90053724 73.94086687 -23 72.25 C-23.1878439 68.07393784 -23.1878439 68.07393784 -26 64.9375 C-26.845625 64.40125 -27.69125 63.865 -28.5625 63.3125 C-30.65290603 60.11624778 -30.8328346 57.45956738 -30.8125 53.6875 C-30.81765625 52.72585937 -30.8228125 51.76421875 -30.828125 50.7734375 C-30.5625 48.3125 -30.5625 48.3125 -28.5625 46.3125 C-26.03125 46.046875 -26.03125 46.046875 -23.0625 46.0625 C-22.0828125 46.05734375 -21.103125 46.0521875 -20.09375 46.046875 C-17.5625 46.3125 -17.5625 46.3125 -15.5625 48.3125 C-12.52067107 48.56255386 -12.52067107 48.56255386 -9.5625 48.3125 C-8.21845225 47.19413776 -8.21845225 47.19413776 -8.4375 44.3125 C-8.21845225 41.43086224 -8.21845225 41.43086224 -9.5625 40.3125 C-12.52067107 40.06244614 -12.52067107 40.06244614 -15.5625 40.3125 C-16.2225 40.9725 -16.8825 41.6325 -17.5625 42.3125 C-20.3828125 42.5078125 -20.3828125 42.5078125 -23.6875 42.4375 C-24.78320312 42.41945312 -25.87890625 42.40140625 -27.0078125 42.3828125 C-27.85085937 42.35960937 -28.69390625 42.33640625 -29.5625 42.3125 C-31.76230405 35.71308784 -31.90289894 26.09817571 -28.9375 19.6875 C-26.40587222 15.5578944 -22.99920958 12.42615243 -18.5625 10.3984375 C-16.27874072 9.15842758 -15.15275998 7.85218128 -13.5625 5.8125 C-9.63372628 0.77342067 -6.34103985 0.02164177 0 0 Z " fill="#000000" transform="translate(38.5625,3.6875)"/>
<path d="M0 0 C3.69162542 1.74866467 5.41172504 3.23524255 7.875 6.4375 C9.89937064 8.87865283 11.32295037 9.9243933 14 11.5 C19.21675337 14.60290163 22.12121977 18.21045407 24 24 C24.23046875 27.5234375 24.23046875 27.5234375 24.1875 31.375 C24.18105469 32.64085937 24.17460938 33.90671875 24.16796875 35.2109375 C24 39 24 39 23.42578125 42.8515625 C22.7132484 45.89570241 22.7132484 45.89570241 24 48 C25.0181919 58.21530231 25.0181919 58.21530231 22.125 62.625 C20 65 20 65 18 66 C18 62.04 18 58.08 18 54 C12.06 54 6.12 54 0 54 C0 47 0 47 2 45 C2.25005386 41.95817107 2.25005386 41.95817107 2 39 C0.88163776 37.65595225 0.88163776 37.65595225 -2 37.875 C-4.88163776 37.65595225 -4.88163776 37.65595225 -6 39 C-6.25005386 41.95817107 -6.25005386 41.95817107 -6 45 C-5.34 45.66 -4.68 46.32 -4 47 C-3.72370525 50.68024605 -3.9140685 54.30494557 -4 58 C1.94 58 7.88 58 14 58 C17.59344262 73.94590164 17.59344262 73.94590164 14.5 79.875 C11.70871948 82.24758844 9.39569679 83.00799712 5.96484375 84.11328125 C2.65710092 85.60603994 1.12943213 88.11900359 -1 91 C-3.4441794 92.2220897 -5.21029872 92.23641068 -7.9375 92.3125 C-9.25041016 92.36857422 -9.25041016 92.36857422 -10.58984375 92.42578125 C-13 92 -13 92 -14.8046875 90.49609375 C-16.50323146 86.9491343 -16.31981026 83.59039016 -16.1875 79.75 C-16.17396484 79.00492187 -16.16042969 78.25984375 -16.14648438 77.4921875 C-16.11127204 75.66114584 -16.05746851 73.83047831 -16 72 C-14.54207116 71.94600264 -13.08357288 71.90720823 -11.625 71.875 C-10.81289063 71.85179688 -10.00078125 71.82859375 -9.1640625 71.8046875 C-7 72 -7 72 -5 74 C-1.95817107 74.25005386 -1.95817107 74.25005386 1 74 C2.34404775 72.88163776 2.34404775 72.88163776 2.125 70 C2.34404775 67.11836224 2.34404775 67.11836224 1 66 C-1.95817107 65.74994614 -1.95817107 65.74994614 -5 66 C-5.99 66.99 -5.99 66.99 -7 68 C-9.97 68 -12.94 68 -16 68 C-16 54.14 -16 40.28 -16 26 C-10.39 26 -4.78 26 1 26 C1.66 26.66 2.32 27.32 3 28 C6.04182893 28.25005386 6.04182893 28.25005386 9 28 C10.34404775 26.88163776 10.34404775 26.88163776 10.125 24 C10.34404775 21.11836224 10.34404775 21.11836224 9 20 C6.04182893 19.74994614 6.04182893 19.74994614 3 20 C2.34 20.66 1.68 21.32 1 22 C-1.9093558 22.14517744 -4.719946 22.18630796 -7.625 22.125 C-8.42679688 22.11597656 -9.22859375 22.10695313 -10.0546875 22.09765625 C-12.03658523 22.07406223 -14.01832981 22.03819065 -16 22 C-16.08710289 18.89601022 -16.14042309 15.79233452 -16.1875 12.6875 C-16.21263672 11.80642578 -16.23777344 10.92535156 -16.26367188 10.01757812 C-16.27333984 9.17001953 -16.28300781 8.32246094 -16.29296875 7.44921875 C-16.3086792 6.66893311 -16.32438965 5.88864746 -16.34057617 5.0847168 C-15.09195555 -2.55827349 -5.75471411 -0.63783777 0 0 Z " fill="#000000" transform="translate(68,4)"/>
<path d="M0 0 C1.32 0 2.64 0 4 0 C4 1.32 4 2.64 4 4 C2.68 4 1.36 4 0 4 C0 2.68 0 1.36 0 0 Z " fill="#000000" transform="translate(64,72)"/>
<path d="M0 0 C1.32 0 2.64 0 4 0 C4 1.32 4 2.64 4 4 C2.68 4 1.36 4 0 4 C0 2.68 0 1.36 0 0 Z " fill="#000000" transform="translate(32,72)"/>
<path d="M0 0 C1.32 0 2.64 0 4 0 C4 1.32 4 2.64 4 4 C2.68 4 1.36 4 0 4 C0 2.68 0 1.36 0 0 Z " fill="#000000" transform="translate(24,46)"/>
<path d="M0 0 C1.32 0 2.64 0 4 0 C4 1.32 4 2.64 4 4 C2.68 4 1.36 4 0 4 C0 2.68 0 1.36 0 0 Z " fill="#000000" transform="translate(64,44)"/>
<path d="M0 0 C1.32 0 2.64 0 4 0 C4 1.32 4 2.64 4 4 C2.68 4 1.36 4 0 4 C0 2.68 0 1.36 0 0 Z " fill="#000000" transform="translate(72,26)"/>
<path d="M0 0 C1.32 0 2.64 0 4 0 C4 1.32 4 2.64 4 4 C2.68 4 1.36 4 0 4 C0 2.68 0 1.36 0 0 Z " fill="#000000" transform="translate(24,26)"/>
</svg>
