<svg width="688" height="440" viewBox="0 0 688 440" fill="none" xmlns="http://www.w3.org/2000/svg">
<path d="M625.56 155.22H452.98V286.28H625.56V155.22Z" fill="white" stroke="#001E2B" stroke-miterlimit="10"/>
<path d="M616.95 163.67H461.6V277.84H616.95V163.67Z" fill="#FFE212" stroke="#001E2B" stroke-miterlimit="10"/>
<path d="M616.95 247.73L598.29 228.94L573.97 249.17L511.94 194.26L461.6 245.2V277.84H616.95V247.73Z" fill="#00ED64" stroke="#001E2B" stroke-miterlimit="10"/>
<path d="M580.35 212.94C589.628 212.94 597.15 205.419 597.15 196.14C597.15 186.862 589.628 179.34 580.35 179.34C571.072 179.34 563.55 186.862 563.55 196.14C563.55 205.419 571.072 212.94 580.35 212.94Z" fill="white" stroke="#001E2B" stroke-miterlimit="10"/>
<path d="M498.56 155.22H453.11V225.37H498.56V155.22Z" fill="#001E2B"/>
<path d="M354.5 28.3503V197.25H483.19V73.0903L438.45 28.3503H354.5Z" fill="#00ED64" stroke="#001E2B" stroke-linecap="round" stroke-linejoin="round"/>
<path d="M443.42 73.0903L440.29 83.0003L483.19 73.1403L443.42 73.0903Z" fill="#001E2B" stroke="#001E2B" stroke-linejoin="round"/>
<path d="M438.45 28.3503V73.0903H483.19L438.45 28.3503Z" fill="white" stroke="#001E2B" stroke-linejoin="round"/>
<path d="M442.88 160.23V197.53H412V150.91H433.58C436.048 150.915 438.414 151.9 440.157 153.647C441.901 155.394 442.88 157.762 442.88 160.23Z" fill="#001E2B"/>
<path d="M517.14 307.48V314.89C512.88 314.81 509.98 315.98 507.76 318.41C505.54 320.84 504.3 326.41 504.06 335.09C504.022 340.011 503.641 344.923 502.92 349.79C502.454 352.739 501.145 355.489 499.15 357.71C497.135 359.854 494.567 361.401 491.73 362.18C488.73 363.06 484.507 363.423 479.06 363.27L475.95 363.19L476.33 349.19C482.01 349.343 485.427 348.847 486.58 347.7C487.72 346.56 488.39 344.29 488.58 340.88C489.073 331.493 489.543 325.39 489.99 322.57C490.442 319.757 491.394 317.048 492.8 314.57C494.22 312.043 496.807 309.653 500.56 307.4L517.14 307.48Z" fill="#00ED64" stroke="#001E2B" stroke-linecap="round" stroke-linejoin="round"/>
<path d="M500 307.29C496.841 305.47 494.233 302.83 492.45 299.65C490.88 296.7 489.99 292.46 489.75 286.94L489 269.83C488.865 269.066 488.573 268.338 488.143 267.693C487.713 267.048 487.153 266.498 486.5 266.08C485.17 265.22 482.12 264.78 477.34 264.74L477.45 250.64H480.5C486.767 250.693 491.6 251.447 495 252.9C498.267 254.234 500.901 256.767 502.36 259.98C503.86 263.24 504.58 268.497 504.52 275.75C504.46 283.75 504.697 288.863 505.23 291.09C505.775 293.362 506.844 295.474 508.35 297.26C509.91 299.13 512.86 300.17 517.2 300.36L517.15 307.46L500 307.29Z" fill="white" stroke="#001E2B" stroke-linecap="round" stroke-linejoin="round"/>
<path d="M542 286.29H527L526.54 275.88C526.406 275.115 526.115 274.385 525.684 273.738C525.254 273.091 524.694 272.54 524.04 272.12C522.707 271.267 519.657 270.824 514.89 270.79L514.99 256.68H518.05C524.317 256.727 529.15 257.48 532.55 258.94C535.82 260.266 538.453 262.802 539.9 266.02C541.4 269.28 542.123 274.537 542.07 281.79C542.023 283.424 542 284.924 542 286.29Z" fill="#001E2B"/>
<path d="M625.56 247.28V280C624.032 280.303 622.478 280.454 620.92 280.45C616.952 280.458 613.042 279.501 609.526 277.662C606.011 275.822 602.995 273.155 600.74 269.891C598.484 266.627 597.056 262.863 596.579 258.924C596.102 254.985 596.589 250.989 598 247.28H625.56Z" fill="#001E2B" stroke="#001E2B" stroke-miterlimit="10"/>
<path d="M483.23 131.27V163.94C481.702 164.243 480.148 164.394 478.59 164.39C474.631 164.39 470.731 163.43 467.225 161.591C463.719 159.752 460.711 157.09 458.46 153.833C456.209 150.576 454.782 146.821 454.301 142.891C453.82 138.962 454.3 134.974 455.7 131.27H483.23Z" fill="#001E2B" stroke="#001E2B" stroke-miterlimit="10"/>
<path d="M619.72 259.01C633.201 259.01 644.13 248.081 644.13 234.6C644.13 221.119 633.201 210.19 619.72 210.19C606.239 210.19 595.31 221.119 595.31 234.6C595.31 248.081 606.239 259.01 619.72 259.01Z" fill="#001E2B" stroke="#001E2B" stroke-miterlimit="10"/>
<path d="M619.72 255.76C633.201 255.76 644.13 244.831 644.13 231.35C644.13 217.869 633.201 206.94 619.72 206.94C606.239 206.94 595.31 217.869 595.31 231.35C595.31 244.831 606.239 255.76 619.72 255.76Z" fill="#B1FF05" stroke="#001E2B" stroke-miterlimit="10"/>
<path d="M635.68 225.1L629.9 219.32L617.42 231.81L611.53 225.93L605.76 231.71L611.64 237.59L617.42 243.37L623.2 237.59L635.68 225.1Z" fill="white" stroke="#001E2B" stroke-miterlimit="10"/>
<path d="M468.67 145.44C483.698 145.44 495.88 133.258 495.88 118.23C495.88 103.203 483.698 91.0203 468.67 91.0203C453.642 91.0203 441.46 103.203 441.46 118.23C441.46 133.258 453.642 145.44 468.67 145.44Z" fill="#001E2B" stroke="#001E2B" stroke-miterlimit="10"/>
<path d="M468.67 141.82C483.698 141.82 495.88 129.638 495.88 114.61C495.88 99.5825 483.698 87.4001 468.67 87.4001C453.642 87.4001 441.46 99.5825 441.46 114.61C441.46 129.638 453.642 141.82 468.67 141.82Z" fill="#B1FF05" stroke="#001E2B" stroke-miterlimit="10"/>
<path d="M486.47 107.65L480.03 101.21L466.11 115.13L459.55 108.57L453.11 115.01L459.67 121.57L466.11 128.01L472.55 121.57L486.47 107.65Z" fill="white" stroke="#001E2B" stroke-miterlimit="10"/>
<path d="M377.05 389.1L156.76 389.01L201.48 251L421.78 251.09L377.05 389.1Z" fill="white" stroke="#001E2B" stroke-miterlimit="10"/>
<path d="M368.52 379.51H171.53L210.02 260.59H407L368.52 379.51Z" fill="#FFE212" stroke="#001E2B" stroke-miterlimit="10"/>
<path d="M277.17 389.01H36.33V401.72H277.17V389.01Z" fill="white" stroke="#001E2B" stroke-miterlimit="10"/>
<path d="M377.05 389.08H277.17V401.77H377.05V389.08Z" fill="#001E2B" stroke="#001E2B" stroke-miterlimit="10"/>
<path d="M228.87 314.89L232.21 317.41L388.16 354.82L400.29 317.41L228.87 314.89Z" fill="#001E2B"/>
<path d="M251.17 87.0403H139.91C137.149 87.0403 134.91 89.2789 134.91 92.0403V158.07C134.91 160.832 137.149 163.07 139.91 163.07H251.17C253.931 163.07 256.17 160.832 256.17 158.07V92.0403C256.17 89.2789 253.931 87.0403 251.17 87.0403Z" fill="#FFEEA9" stroke="#001E2B" stroke-miterlimit="10"/>
<path d="M247.3 100.25H143.78V149.87H247.3V100.25Z" fill="white"/>
<path d="M149.72 116.19H241.42" stroke="#FFE212" stroke-miterlimit="10"/>
<path d="M149.72 107.33H241.42" stroke="#FFE212" stroke-miterlimit="10"/>
<path d="M149.72 125.06H241.42" stroke="#FFE212" stroke-miterlimit="10"/>
<path d="M149.72 133.92H241.42" stroke="#FFE212" stroke-miterlimit="10"/>
<path d="M149.72 142.79H241.42" stroke="#FFE212" stroke-miterlimit="10"/>
<path d="M150.51 140.29L166.47 138.47L169.99 139.04L173.49 137.61L176.3 138.93L185.98 135.41L188.07 137.23L196.24 130.72L198 131.45L209.9 115.29L229.36 107.33" stroke="#001E2B" stroke-miterlimit="10"/>
<path d="M532.04 307.36H638.67" stroke="#001E2B" stroke-miterlimit="10" stroke-dasharray="2 2"/>
<path d="M426.83 133.42V308.09C426.83 310.562 425.848 312.933 424.1 314.681C422.352 316.428 419.982 317.41 417.51 317.41H246.15V124.1H417.51C419.982 124.1 422.352 125.082 424.1 126.83C425.848 128.578 426.83 130.949 426.83 133.42Z" fill="white" stroke="#001E2B" stroke-linecap="round" stroke-linejoin="round"/>
<path d="M246.15 124.1V317.41H235.23C232.758 317.41 230.388 316.428 228.64 314.681C226.892 312.933 225.91 310.562 225.91 308.09V133.42C225.91 130.949 226.892 128.578 228.64 126.83C230.388 125.082 232.758 124.1 235.23 124.1H246.15Z" fill="#00ED64" stroke="#001E2B" stroke-linecap="round" stroke-linejoin="round"/>
<path d="M281.01 146.7H381.08" stroke="#001E2B" stroke-miterlimit="10"/>
<path d="M303.75 162.08H361.02" stroke="#001E2B" stroke-miterlimit="10"/>
<path d="M259.38 162.08H294.63" stroke="#001E2B" stroke-miterlimit="10"/>
<path d="M295.28 191.85H361.02" stroke="#001E2B" stroke-miterlimit="10"/>
<path d="M259.38 191.85H281.87" stroke="#001E2B" stroke-miterlimit="10"/>
<path d="M293.32 221.61H361.02" stroke="#001E2B" stroke-miterlimit="10"/>
<path d="M259.38 221.61H283.28" stroke="#001E2B" stroke-miterlimit="10"/>
<path d="M293.32 176.96H403.04" stroke="#001E2B" stroke-miterlimit="10"/>
<path d="M259.38 176.96H282.89" stroke="#001E2B" stroke-miterlimit="10"/>
<path d="M301.8 236.5H381.09" stroke="#001E2B" stroke-miterlimit="10"/>
<path d="M259.38 236.5H294.63" stroke="#001E2B" stroke-miterlimit="10"/>
<path d="M309.62 206.73H392.35" stroke="#001E2B" stroke-miterlimit="10"/>
<path d="M259.38 206.73H299.84" stroke="#001E2B" stroke-miterlimit="10"/>
<path d="M281.59 294.65H301.43" stroke="#001E2B" stroke-miterlimit="10"/>
<path d="M259.38 294.65H274.84" stroke="#001E2B" stroke-miterlimit="10"/>
<path d="M293.32 265.52H361.02" stroke="#001E2B" stroke-miterlimit="10"/>
<path d="M259.38 265.52H283.28" stroke="#001E2B" stroke-miterlimit="10"/>
<path d="M301.8 280.4H381.09" stroke="#001E2B" stroke-miterlimit="10"/>
<path d="M259.38 280.4H294.63" stroke="#001E2B" stroke-miterlimit="10"/>
<path d="M309.62 250.64H392.35" stroke="#001E2B" stroke-miterlimit="10"/>
<path d="M259.38 250.64H299.84" stroke="#001E2B" stroke-miterlimit="10"/>
<path d="M259.676 147.355H264.119V146.59H259.676V147.355ZM266.627 139.307C266.627 138.961 266.354 138.667 265.998 138.667C265.641 138.667 265.348 138.961 265.348 139.307C265.348 139.663 265.641 139.946 265.998 139.946C266.354 139.946 266.627 139.663 266.627 139.307ZM265.537 146.59H266.438V141.35H265.537V146.59ZM267.738 143.97C267.738 145.469 268.838 146.695 270.305 146.695C271.091 146.695 271.804 146.286 272.15 145.783V146.59H273.051V138.73H272.15V142.157C271.804 141.654 271.091 141.246 270.305 141.246C268.838 141.246 267.738 142.472 267.738 143.97ZM272.223 143.97C272.223 145.029 271.5 145.867 270.441 145.867C269.383 145.867 268.649 145.029 268.649 143.97C268.649 142.912 269.383 142.073 270.441 142.073C271.5 142.073 272.223 142.912 272.223 143.97ZM276.11 142.011C276.11 141.591 275.764 141.225 275.334 141.225C274.905 141.225 274.559 141.591 274.559 142.011C274.559 142.44 274.905 142.797 275.334 142.797C275.764 142.797 276.11 142.44 276.11 142.011ZM276.11 145.888C276.11 145.469 275.764 145.102 275.334 145.102C274.905 145.102 274.559 145.469 274.559 145.888C274.559 146.318 274.905 146.674 275.334 146.674C275.764 146.674 276.11 146.318 276.11 145.888Z" fill="#001E2B"/>
<path d="M41.07 238.29H332.38V245.21C332.372 251.621 329.822 257.766 325.289 262.299C320.756 266.832 314.61 269.382 308.2 269.39H65.25C60.4678 269.388 55.7936 267.968 51.8175 265.311C47.8415 262.653 44.7419 258.878 42.91 254.46C41.6929 251.528 41.0676 248.385 41.07 245.21V238.29Z" fill="#081E2A" stroke="#081E2A" stroke-miterlimit="10"/>
<path d="M311.43 217.35H62C59.211 217.289 56.4378 217.786 53.8433 218.811C51.2488 219.836 48.8852 221.369 46.8911 223.32C44.8971 225.271 43.3128 227.601 42.2311 230.172C41.1495 232.744 40.5923 235.505 40.5923 238.295C40.5923 241.085 41.1495 243.847 42.2311 246.418C43.3128 248.99 44.8971 251.319 46.8911 253.27C48.8852 255.221 51.2488 256.754 53.8433 257.779C56.4378 258.804 59.211 259.301 62 259.24H311.43C314.219 259.301 316.992 258.804 319.587 257.779C322.181 256.754 324.545 255.221 326.539 253.27C328.533 251.319 330.117 248.99 331.199 246.418C332.281 243.847 332.838 241.085 332.838 238.295C332.838 235.505 332.281 232.744 331.199 230.172C330.117 227.601 328.533 225.271 326.539 223.32C324.545 221.369 322.181 219.836 319.587 218.811C316.992 217.786 314.219 217.289 311.43 217.35Z" fill="white" stroke="#001E2B" stroke-miterlimit="10"/>
<path d="M63.73 238.29H286.14" stroke="#081E2A" stroke-miterlimit="10" stroke-dasharray="2 2"/>
<path d="M134.91 133.55V157.55C136.03 157.772 137.169 157.882 138.31 157.88C141.213 157.881 144.074 157.176 146.645 155.827C149.216 154.479 151.422 152.526 153.072 150.137C154.722 147.748 155.768 144.994 156.119 142.112C156.471 139.23 156.118 136.306 155.09 133.59L134.91 133.55Z" fill="#001E2B" stroke="#001E2B" stroke-miterlimit="10"/>
<path d="M138.6 148.5C148.48 148.5 156.49 140.491 156.49 130.61C156.49 120.73 148.48 112.72 138.6 112.72C128.72 112.72 120.71 120.73 120.71 130.61C120.71 140.491 128.72 148.5 138.6 148.5Z" fill="#001E2B" stroke="#001E2B" stroke-miterlimit="10"/>
<path d="M138.6 146.11C148.48 146.11 156.49 138.101 156.49 128.22C156.49 118.34 148.48 110.33 138.6 110.33C128.72 110.33 120.71 118.34 120.71 128.22C120.71 138.101 128.72 146.11 138.6 146.11Z" fill="#B1FF05" stroke="#001E2B" stroke-miterlimit="10"/>
<path d="M150.31 123.65L146.07 119.41L136.92 128.56L132.6 124.25L128.37 128.49L132.68 132.8L136.92 137.04L141.16 132.8L150.31 123.65Z" fill="white" stroke="#001E2B" stroke-miterlimit="10"/>
<path d="M581.04 326.46H660.4" stroke="#001E2B" stroke-miterlimit="10" stroke-dasharray="2 2"/>
<path d="M47.51 317.4H126.87" stroke="#001E2B" stroke-miterlimit="10" stroke-dasharray="2 2"/>
<path d="M311.83 87.2002L291.76 76.7002L311.83 66.1902L331.89 76.7002L311.83 87.2002Z" fill="white" stroke="#001F2C" stroke-linejoin="round"/>
<path d="M311.83 107.88L291.76 97.3801L311.83 86.8801L331.89 97.3801L311.83 107.88Z" fill="#001F2C" stroke="#001F2C" stroke-linejoin="round"/>
<path d="M291.76 76.7002V97.3802L311.83 107.88V86.8802L291.76 76.7002Z" fill="#00EF4C" stroke="#001F2C" stroke-linejoin="round"/>
<path d="M311.83 86.8802V107.88L331.89 97.3802V76.7002L311.83 86.8802Z" fill="#001F2C" stroke="#001F2C" stroke-linejoin="round"/>
<path d="M374.47 124.08L358.06 132.68L357.81 132.81L357.55 132.68L341.13 124.08H374.47Z" fill="#001F2C"/>
<path d="M374.47 141.26L357.81 149.99L341.13 141.26L357.55 132.68L357.81 132.54L358.06 132.68L374.47 141.26Z" fill="#001F2C"/>
<path d="M357.81 132.54V149.99L341.13 141.26V124.08L357.81 132.54Z" fill="#001F2C"/>
<path d="M374.47 124.08V141.26L357.81 149.99V132.54L374.47 124.08Z" fill="#001F2C"/>
<path d="M307.11 248.22C306.88 248.027 306.669 247.813 306.48 247.58L307.08 234.31L307.68 247.58C307.494 247.816 307.282 248.03 307.05 248.22H307.11ZM309.42 228C308.3 226.68 307.34 225.33 307.15 225H307.08C306.88 225.28 305.92 226.63 304.8 228C295.23 240.18 306.31 248.41 306.31 248.41L306.4 248.47C306.49 249.74 306.7 251.57 306.7 251.57H307.53C307.53 251.57 307.74 249.75 307.82 248.47L307.91 248.4C307.91 248.4 319 240.17 309.42 228Z" fill="#00ED64"/>
<path d="M137.29 324.73C141.034 324.73 144.07 321.695 144.07 317.95C144.07 314.206 141.034 311.17 137.29 311.17C133.546 311.17 130.51 314.206 130.51 317.95C130.51 321.695 133.546 324.73 137.29 324.73Z" fill="#FFE212" stroke="#001E2B" stroke-miterlimit="10"/>
<path d="M144.07 318C144.069 319.462 143.594 320.885 142.718 322.056C141.842 323.226 140.611 324.082 139.209 324.496C137.807 324.91 136.308 324.86 134.937 324.352C133.566 323.845 132.395 322.907 131.6 321.68C132.695 322.402 133.979 322.784 135.29 322.78C136.181 322.782 137.063 322.607 137.886 322.267C138.709 321.927 139.457 321.427 140.087 320.797C140.717 320.168 141.216 319.42 141.557 318.596C141.897 317.773 142.071 316.891 142.07 316C142.074 314.689 141.691 313.405 140.97 312.31C141.923 312.923 142.706 313.765 143.247 314.759C143.789 315.753 144.072 316.868 144.07 318Z" fill="#001E2B"/>
</svg>
